PathFileType  4	(X/Y/Z) C:\Users\antoi\Documents\MyRepositories\mobilecap\ResultsAnalysis
DataRate	CameraRate	NumFrames	NumMarkers	Units	OrigDataRate	OrigDataStartFrame	OrigNumFrames
100.0	100.0	6	51	mm	100.0	55	146
Frame#	Time	r_knee			r_shank_antsup			r_ankle			r_calc			r_5meta			r_toe			L_knee			L_shank_antsup			L_ankle			L_calc			L_5meta			L_toe			r_sh2			r_sh3			r_sh4			L_sh2			L_sh3			r_thigh1			r_thigh2			r_thigh3			r_thigh4			r_thigh5			L_thigh1			L_thigh2			L_thigh3			L_thigh4			r.ASIS			r.PSIS			L.ASIS			L.PSIS			C7			R_Shoulder			L_Shoulder			R_Sternum			L_Sternum			R_humerus			R_elbow_med			R_elbow_lat			R_forearm			R_wrist_radius			R_wrist_ulna			L_humerus			L_elbow_med			L_elbow_lat			L_forearm			L_wrist_radius			L_wrist_ulna			R_HJC			L_HJC			R_HJC_reg			L_HJC_reg			
		X1	Y1	Z1	X2	Y2	Z2	X3	Y3	Z3	X4	Y4	Z4	X5	Y5	Z5	X6	Y6	Z6	X7	Y7	Z7	X8	Y8	Z8	X9	Y9	Z9	X10	Y10	Z10	X11	Y11	Z11	X12	Y12	Z12	X13	Y13	Z13	X14	Y14	Z14	X15	Y15	Z15	X16	Y16	Z16	X17	Y17	Z17	X18	Y18	Z18	X19	Y19	Z19	X20	Y20	Z20	X21	Y21	Z21	X22	Y22	Z22	X23	Y23	Z23	X24	Y24	Z24	X25	Y25	Z25	X26	Y26	Z26	X27	Y27	Z27	X28	Y28	Z28	X29	Y29	Z29	X30	Y30	Z30	X31	Y31	Z31	X32	Y32	Z32	X33	Y33	Z33	X34	Y34	Z34	X35	Y35	Z35	X36	Y36	Z36	X37	Y37	Z37	X38	Y38	Z38	X39	Y39	Z39	X40	Y40	Z40	X41	Y41	Z41	X42	Y42	Z42	X43	Y43	Z43	X44	Y44	Z44	X45	Y45	Z45	X46	Y46	Z46	X47	Y47	Z47	X48	Y48	Z48	X49	Y49	Z49	X50	Y50	Z50	X51	Y51	Z51	

55	0.54000000	327.00100	515.77752	-6.97450	323.62305	428.42566	-4.16441	146.01597	109.43979	-54.02148	76.59445	64.80085	-99.56776	281.05878	35.48275	-23.95180	314.21800	57.25402	-85.59274	614.33119	533.80696	-290.44009	690.92014	445.47892	-308.30471	791.43168	123.89837	-297.59916	743.40261	56.62590	-258.38297	962.53113	105.96754	-327.63960	970.10775	142.39405	-264.09926	283.14678	322.29332	-5.68308	254.50428	453.77929	18.67378	202.11493	352.34112	9.05145	605.07612	416.06283	-317.88093	657.69177	306.60430	-322.92758	472.52592	812.76011	45.06064	466.30972	704.79026	22.50484	403.66864	682.25528	43.30765	358.40853	820.13074	51.05424	351.91734	704.45455	33.95320	550.04729	849.47013	-301.29567	609.09924	723.78282	-304.60912	444.40947	797.46186	-308.69046	512.22629	673.81893	-312.77785	528.89400	1011.44108	6.48081	339.02656	1071.66972	-72.29503	525.77264	1005.39794	-254.25756	333.11732	1062.27388	-176.22329	394.90992	1559.68539	-233.30555	441.62097	1571.25310	-60.09151	459.98427	1493.93703	-373.90813	544.01347	1492.11801	-173.59163	545.43519	1475.75499	-228.80132	361.54497	1344.97760	91.52691	327.03709	1237.76524	38.16784	323.74984	1265.59516	117.50034	389.42505	1134.35559	186.37453	436.71813	1032.98290	216.44515	392.23329	1033.07408	220.43712	351.44466	1250.03821	-420.41179	285.91872	1190.33597	-343.32857	295.50923	1180.03481	-411.18626	291.44526	1005.23825	-418.61787	293.75494	904.60477	-405.41143	255.62443	910.10270	-408.56029	436.09622	942.55039	1.70340	435.26203	935.02335	-228.54044	447.97137	953.37076	-20.49559	438.23752	937.89409	-191.66578	
56	0.55000000	336.78594	513.97656	-6.48056	331.64089	426.47648	-3.57216	147.33828	111.17468	-53.54932	77.15522	67.34051	-99.38197	281.07413	35.42351	-23.86478	314.28374	56.98042	-85.57475	627.82403	532.16825	-290.37072	705.28355	444.26046	-307.90379	807.67455	123.33605	-298.04007	761.53476	53.12619	-261.47953	980.08201	112.92836	-325.52059	984.68179	148.39232	-261.09269	288.85322	321.21131	-5.22081	262.97076	453.26100	19.12720	208.43426	352.91696	9.46273	619.62443	414.58305	-319.03019	673.20159	305.51118	-324.56117	483.41444	810.45180	45.41911	476.96672	702.57339	22.98244	414.16786	680.20480	43.54148	369.32317	818.23699	51.01344	362.50665	702.56409	34.00346	563.51442	847.75765	-300.77223	622.52725	721.84319	-304.05798	457.94970	795.71703	-309.26665	525.62848	672.04031	-313.12917	540.76588	1009.15785	7.00846	351.30515	1069.23337	-72.60835	539.04722	1003.06748	-253.76906	345.80516	1059.93536	-176.51990	408.29265	1556.25720	-237.36128	454.50655	1569.90787	-64.33571	473.77653	1488.44710	-377.30403	557.29247	1488.99676	-176.68089	558.62319	1472.07287	-231.77821	372.39949	1345.68240	89.27643	337.77818	1237.86449	37.01339	334.20559	1266.67775	116.04066	400.10335	1136.12346	186.14072	447.37344	1035.15795	217.16853	402.96676	1035.34131	221.31215	362.17294	1245.89121	-421.80856	295.48510	1187.73451	-344.45992	304.96542	1176.80142	-412.15107	298.09599	1002.10091	-418.41064	299.74478	901.90273	-404.89303	260.64975	907.52838	-407.82872	448.07961	940.19180	1.81466	448.34121	932.68976	-228.43185	460.17597	950.90051	-20.33620	451.11356	935.57733	-191.57263	
57	0.56000000	347.04559	512.16347	-5.99368	340.02093	424.52487	-2.94028	148.84490	113.22254	-52.97988	77.91624	70.46979	-99.14242	281.08833	35.34487	-23.74754	314.32621	56.74976	-85.51930	642.01534	530.82237	-290.15550	719.49595	442.46901	-307.43752	820.78670	121.62491	-297.89807	775.91603	49.34457	-263.47952	993.90061	116.86927	-323.62320	996.33704	151.46302	-258.55378	294.83466	320.19812	-4.72768	271.85974	452.81442	19.57966	215.11479	353.65442	9.87559	633.76195	413.26576	-319.67289	687.15736	304.09887	-325.39315	494.45902	808.27069	45.64932	487.68701	700.55076	23.49275	424.96050	678.21189	43.72432	380.39512	816.35729	50.79574	373.37580	700.67721	33.95295	577.57770	846.64403	-300.28749	636.87723	720.72775	-303.39169	472.17993	794.32064	-309.82771	540.09386	670.80372	-313.38997	552.77352	1006.99963	7.46186	363.65580	1066.82683	-73.12665	552.43683	1000.98741	-253.46328	358.62391	1057.69605	-176.98639	421.76469	1552.97150	-241.33719	467.53445	1568.62626	-68.54255	487.58393	1483.11871	-380.64567	570.48696	1485.88599	-179.76984	571.91606	1468.51627	-234.75870	383.33423	1346.40155	86.87354	348.84268	1237.93927	35.68318	344.75230	1267.76351	114.34069	410.76724	1137.90545	185.73412	458.01305	1037.32308	217.77029	413.61729	1037.61060	222.00346	373.16140	1241.86916	-423.19605	305.40288	1185.18318	-345.59753	314.78630	1173.65101	-413.12996	305.27768	999.07747	-418.26456	306.53242	899.43058	-404.57126	266.34823	905.08425	-407.16589	460.21057	937.90411	1.72242	461.61991	930.53324	-228.52381	472.49762	948.45066	-20.34141	464.19793	933.38302	-191.73149	
58	0.57000000	357.73256	510.37945	-5.53968	348.72524	422.63020	-2.28580	150.57660	115.63171	-52.37497	78.91073	74.21489	-98.88413	281.10508	35.25531	-23.62679	314.36394	56.57617	-85.43284	656.69531	529.66699	-289.73866	733.51007	440.18841	-306.80492	831.15248	118.98454	-297.29113	786.62199	45.80082	-264.41765	1004.45363	117.21257	-322.10408	1005.73676	151.06269	-256.61307	301.07829	319.32202	-4.23071	281.13151	452.48986	19.99906	222.14031	354.60582	10.24530	647.50524	412.03795	-319.74765	699.68688	302.33677	-325.35513	505.69323	806.23575	45.74538	498.40019	698.78555	24.06484	436.05011	676.30343	43.84938	391.65519	814.53443	50.38202	384.53101	698.83362	33.78868	592.12685	845.94453	-299.90468	651.92866	720.24537	-302.63604	486.92585	793.21528	-310.29453	555.35998	669.98619	-313.49379	564.93391	1004.96859	7.80947	376.13905	1064.49561	-73.85231	565.99827	999.20920	-253.34706	371.62465	1055.57065	-177.62400	435.31718	1549.85231	-245.22441	480.71392	1567.44115	-72.69286	501.42041	1478.00764	-383.92568	583.64119	1482.86089	-182.85514	585.30298	1465.12566	-237.73864	394.39190	1347.15522	84.33152	360.24503	1238.01570	34.20002	355.39974	1268.87478	112.41183	421.41467	1139.71379	185.15835	468.63176	1039.48930	218.24394	424.17189	1039.88347	222.49030	384.42789	1237.99463	-424.56626	315.71001	1182.70240	-346.72647	325.00562	1170.59796	-414.10681	312.99631	996.18469	-418.18635	314.00269	897.12910	-404.38427	272.73665	902.76732	-406.58694	472.52796	935.69789	1.40341	475.14515	928.59721	-228.83961	484.96427	946.11537	-20.51779	477.50494	931.35678	-192.12636	
59	0.58000000	368.77741	508.69085	-5.14160	357.71210	420.87646	-1.62124	152.57943	118.45751	-51.79297	80.18574	78.60000	-98.64137	281.13618	35.16286	-23.53072	314.41642	56.46076	-85.32460	671.62699	528.62047	-289.10908	747.30571	437.57363	-305.92262	839.34098	115.76166	-296.35931	794.07343	42.96965	-264.47499	1012.40305	113.98363	-321.02381	1013.58960	147.19100	-255.26018	307.57089	318.67871	-3.74238	290.73341	452.35950	20.34955	229.48432	355.84409	10.52587	660.91705	410.87803	-319.29897	711.09886	300.31878	-324.52958	517.15667	804.37026	45.71045	509.10182	697.31443	24.70522	447.43555	674.51474	43.90751	403.14075	812.82470	49.75613	395.97244	697.08782	33.49940	607.00273	845.45808	-299.69343	667.37442	720.12636	-301.86449	501.97172	792.32461	-310.61557	571.06058	669.42487	-313.40619	577.27724	1003.08526	8.02025	388.82356	1062.28061	-74.77115	579.79465	997.76580	-253.40345	384.85446	1053.58458	-178.42736	448.93577	1546.91660	-249.03315	494.05273	1566.37757	-76.77404	515.30266	1473.16377	-387.14440	596.82503	1480.00720	-185.93445	598.76704	1461.93593	-240.71121	405.61979	1347.96228	81.66905	371.94306	1238.14371	32.58700	366.16538	1270.03748	110.28011	432.05301	1141.55870	184.42158	479.22747	1041.66799	218.58002	434.63991	1042.15962	222.75658	395.99196	1234.29051	-425.91810	326.44066	1180.31292	-347.83720	335.65004	1167.65720	-415.06949	321.26567	993.44253	-418.17511	322.00327	894.94088	-404.25129	279.81888	900.58123	-406.08962	485.08044	933.59849	0.85586	488.96590	926.91573	-229.38033	497.63570	943.96615	-20.86768	491.06201	929.54992	-192.72319	
60	0.59000000	380.11243	507.18250	-4.81110	366.95142	419.36106	-0.95096	154.90131	121.75446	-51.26855	81.80392	83.65037	-98.43586	281.20371	35.07388	-23.48052	314.49772	56.38945	-85.20805	686.60544	527.66242	-288.31372	760.90614	434.83500	-304.77136	846.01840	112.33698	-295.26066	798.97979	41.17655	-263.93554	1018.48216	107.76651	-320.34100	1020.51068	140.38604	-254.38060	314.30854	318.37377	-3.25703	300.62251	452.50858	20.60233	237.12634	357.45095	10.68366	674.10257	409.82835	-318.47534	721.82744	298.24496	-323.14640	528.89339	802.70276	45.55230	519.89122	696.12689	25.37761	459.11796	672.88690	43.88651	414.89444	811.29066	48.90858	407.69825	695.50262	33.08057	622.03040	845.01969	-299.71888	682.86938	720.08418	-301.17644	517.10370	791.58862	-310.77933	586.80080	668.96865	-313.13051	589.84467	1001.38823	8.07423	401.76665	1060.22287	-75.85036	593.87286	996.67462	-253.59793	398.34483	1051.79349	-179.37845	462.59871	1544.18461	-252.78467	507.54824	1565.45500	-80.77870	529.24305	1468.63414	-390.30933	610.09768	1477.40499	-189.00586	612.29000	1458.98214	-243.66848	417.05995	1348.84142	78.91081	383.84631	1238.39159	30.86014	377.07563	1271.27889	107.98525	442.70105	1143.44625	183.53467	489.80305	1043.86391	218.76553	445.05273	1044.43688	222.79316	407.87201	1230.78236	-427.25818	337.62562	1178.03504	-348.92876	346.73786	1164.84775	-416.01347	330.10843	990.87246	-418.22505	330.41147	892.82844	-404.10989	287.58811	898.54366	-405.65758	497.91145	931.64954	0.10022	503.11100	925.52238	-230.12464	510.58527	942.02999	-21.39427	504.90291	928.01996	-193.48833	
